<svg id="Group_59" data-name="Group 59" xmlns="http://www.w3.org/2000/svg" width="23.48" height="25.629" viewBox="0 0 23.48 25.629">
  <path id="Path_355" data-name="Path 355" d="M378.725,255.12a1.459,1.459,0,0,1-.42-1.1c.017-2.979.009-5.957.008-8.936a2.377,2.377,0,0,0-2.688-2.693c-.868,0-1.736,0-2.655,0a1.892,1.892,0,0,0-1.25-2.155h-8.2a1.86,1.86,0,0,0-1.21,2.113c-.2.016-.361.04-.522.041-.853,0-1.708-.01-2.561.007a2.26,2.26,0,0,0-2.24,2.074,7.328,7.328,0,0,0-.023.739q0,8.874,0,17.751c0,1.717.353,2.259,1.885,2.9H374.8a15.208,15.208,0,0,0,2.662-1.038A6.319,6.319,0,0,0,378.725,255.12ZM364.473,242.4h6.317v2.075h-6.317Zm4.7,21.271a3.726,3.726,0,0,1-.419.05c-3.037,0-6.073-.006-9.109.011-.449,0-.58-.124-.579-.579q.022-9.052,0-18.1c0-.4.1-.588.536-.575.87.025,1.741.007,2.652.007.033.333.041.579.084.819a1.52,1.52,0,0,0,1.54,1.32q3.728.014,7.458,0a1.6,1.6,0,0,0,1.624-1.5c.018-.186,0-.375,0-.631.984,0,1.929,0,2.872,0,.388,0,.325.288.325.529q0,2.817,0,5.636v2.715c-3.351-.8-6.078.051-7.766,3.123C367.038,258.963,367.479,261.383,369.176,263.667Zm4.9.052a4.227,4.227,0,0,1-4.308-4.266,4.277,4.277,0,0,1,4.25-4.286,4.332,4.332,0,0,1,4.3,4.26A4.27,4.27,0,0,1,374.08,263.72Z" transform="translate(-356.963 -240.232)" fill="#ff2366"/>
  <path id="Path_356" data-name="Path 356" d="M383.527,290.409h.166Zm-.705,0c.152,0,.3,0,.456,0C383.125,290.416,382.974,290.418,382.822,290.414Z" transform="translate(-377.324 -279.739)" fill="#ff2366"/>
  <path id="Path_357" data-name="Path 357" d="M384.5,301.619a1.023,1.023,0,0,1-1.115,1.084q-2.59.015-5.182,0a1.047,1.047,0,1,1-.01-2.087c.874-.011,1.746,0,2.62,0,.854,0,1.707-.007,2.562,0C384.085,300.625,384.488,300.994,384.5,301.619Z" transform="translate(-372.792 -287.772)" fill="#ff2366"/>
  <path id="Path_358" data-name="Path 358" d="M413.541,281.451c.007.665-.42,1.061-1.189,1.075-.663.013-1.327,0-1.99,0s-1.327.009-1.991,0a1.074,1.074,0,1,1,.026-2.127q1.963-.012,3.925,0C413.079,280.4,413.532,280.807,413.541,281.451Z" transform="translate(-396.486 -271.854)" fill="#ff2366"/>
  <path id="Path_359" data-name="Path 359" d="M378.479,321.652a1.1,1.1,0,0,1-1.234,1.048c-.664.007-1.328,0-1.991,0s-1.328.009-1.991,0a1.036,1.036,0,0,1-1.161-1.044,1.058,1.058,0,0,1,1.188-1.08q1.99-.014,3.982,0A1.091,1.091,0,0,1,378.479,321.652Z" transform="translate(-368.883 -303.486)" fill="#ff2366"/>
  <path id="Path_360" data-name="Path 360" d="M381.3,281.408a1,1,0,0,1-1,1.081c-.141.011-.283.015-.425.015q-.14,0-.28,0h-.063c-.073,0-.145,0-.218,0H379l-.249,0c-.153,0-.3,0-.456,0-.07,0-.139-.006-.208-.011a1.041,1.041,0,0,1-1.014-1.081,1.027,1.027,0,0,1,1.011-1.026c.737-.034,1.479-.033,2.217,0A1.013,1.013,0,0,1,381.3,281.408Z" transform="translate(-372.797 -271.825)" fill="#ff2366"/>
  <path id="Path_361" data-name="Path 361" d="M426.225,328.792c.752,0,1.5,0,2.257,0a.6.6,0,0,0,.659-.582.587.587,0,0,0-.64-.6q-2.3-.005-4.59,0a.773.773,0,0,0-.317.067.589.589,0,0,0,.271,1.111C424.653,328.8,425.439,328.791,426.225,328.792Z" transform="translate(-409.179 -309.029)" fill="#ff2366"/>
</svg>
