<svg xmlns="http://www.w3.org/2000/svg" width="25.645" height="17.952" viewBox="0 0 25.645 17.952">
  <path id="Icon_awesome-users" data-name="Icon awesome-users" d="M3.847,9.944A2.565,2.565,0,1,0,1.282,7.379,2.567,2.567,0,0,0,3.847,9.944Zm17.952,0a2.565,2.565,0,1,0-2.565-2.565A2.567,2.567,0,0,0,21.8,9.944Zm1.282,1.282H20.516a2.557,2.557,0,0,0-1.807.745,5.861,5.861,0,0,1,3.009,4.384h2.645a1.281,1.281,0,0,0,1.282-1.282V13.79A2.567,2.567,0,0,0,23.081,11.226Zm-10.258,0A4.488,4.488,0,1,0,8.335,6.738,4.486,4.486,0,0,0,12.823,11.226ZM15.9,12.508h-.333a6.2,6.2,0,0,1-5.49,0H9.745a4.617,4.617,0,0,0-4.616,4.616v1.154A1.924,1.924,0,0,0,7.052,20.2h11.54a1.924,1.924,0,0,0,1.923-1.923V17.124A4.617,4.617,0,0,0,15.9,12.508Zm-8.964-.537a2.557,2.557,0,0,0-1.807-.745H2.565A2.567,2.567,0,0,0,0,13.79v1.282a1.281,1.281,0,0,0,1.282,1.282H3.923A5.876,5.876,0,0,1,6.936,11.971Z" transform="translate(0 -2.25)" fill="#02bc77"/>
</svg>
