<svg xmlns="http://www.w3.org/2000/svg" xmlns:xlink="http://www.w3.org/1999/xlink" width="21" height="21" viewBox="0 0 21 21">
  <defs>
    <clipPath id="clip-path">
      <rect id="Rectangle_1587" data-name="Rectangle 1587" width="21" height="21" transform="translate(1314 210)" fill="#2a1f6d" stroke="#707070" stroke-width="1"/>
    </clipPath>
  </defs>
  <g id="Mask_Group_2" data-name="Mask Group 2" transform="translate(-1314 -210)" clip-path="url(#clip-path)">
    <g id="test" transform="translate(1317.012 210)">
      <path id="Path_54348" data-name="Path 54348" d="M14.824,18.194,10.383,7.37a4.939,4.939,0,0,1-.371-1.883V2.626a1.146,1.146,0,0,1,.338-.816,1.4,1.4,0,0,0,.412-.995V.41a.41.41,0,0,0-.41-.41H4.625a.41.41,0,0,0-.41.41V.816a1.4,1.4,0,0,0,.412.995,1.146,1.146,0,0,1,.338.816V5.487A4.936,4.936,0,0,1,4.593,7.37l-1.22,2.974v0L.153,18.194A2.034,2.034,0,0,0,2.034,21H12.942a2.034,2.034,0,0,0,1.882-2.806ZM5.352,7.681a5.752,5.752,0,0,0,.433-2.194V2.626a1.961,1.961,0,0,0-.578-1.4A.583.583,0,0,1,5.035.82H9.941a.583.583,0,0,1-.172.41,1.961,1.961,0,0,0-.578,1.4V5.487a5.755,5.755,0,0,0,.433,2.194l.99,2.414H4.362Zm8.6,11.961a1.2,1.2,0,0,1-1.008.538H2.034a1.215,1.215,0,0,1-1.2-1.389h.676a.41.41,0,1,0,0-.82H1.131L1.6,16.822h.692a.41.41,0,0,0,0-.82H1.939l.471-1.148h.711a.41.41,0,1,0,0-.82H2.747l.471-1.148h.731a.41.41,0,1,0,0-.82H3.554l.471-1.148h6.925l3.114,7.59a1.2,1.2,0,0,1-.115,1.136Zm0,0" fill="#2a1f6d" stroke="#2a1f6d" stroke-width="0.2"/>
    </g>
  </g>
</svg>
