<svg xmlns="http://www.w3.org/2000/svg" width="15.954" height="17.645" viewBox="0 0 15.954 17.645">
  <path id="Path_54345" data-name="Path 54345" d="M25.6,25.644H14.2a.658.658,0,0,1-.658-.658V22.3a.658.658,0,0,1,1.316,0v2.033H24.944V9.312H14.868V11.5a.658.658,0,1,1-1.316,0V8.654A.658.658,0,0,1,14.21,8h11.4a.658.658,0,0,1,.658.658V24.99a.658.658,0,0,1-.665.654Zm-8.591-5.084,3.286-3.286.033-.037a.651.651,0,0,0,.154-.368.669.669,0,0,0,0-.125.654.654,0,0,0-.187-.419h0l-3.253-3.253a.658.658,0,1,0-.93.93l2.132,2.132H10.968a.658.658,0,1,0,0,1.316H18.25l-2.172,2.18a.658.658,0,1,0,.93.93Z" transform="translate(-10.31 -8)" fill="#ea5455"/>
</svg>
