<svg xmlns="http://www.w3.org/2000/svg" width="16.665" height="16.66" viewBox="0 0 16.665 16.66">
  <path id="Subtraction_31" data-name="Subtraction 31" d="M.836,16.66A.51.51,0,0,1,.5,16.58a.739.739,0,0,1-.5-.75V2.5A2.445,2.445,0,0,1,2.5,0H14.167a2.445,2.445,0,0,1,2.5,2.5v8.332a2.442,2.442,0,0,1-2.5,2.494H4.5L1.419,16.412A.75.75,0,0,1,.836,16.66ZM2.5,1.668a.787.787,0,0,0-.831.832V13.828l1.916-1.916a.749.749,0,0,1,.583-.248h10A.789.789,0,0,0,15,10.832V2.5a.789.789,0,0,0-.836-.832Z" fill="#423b3f"/>
</svg>
