<svg xmlns="http://www.w3.org/2000/svg" width="16.668" height="16.666" viewBox="0 0 16.668 16.666">
  <path id="Subtraction_1" data-name="Subtraction 1" d="M15.834,0a.9.9,0,0,0-.583.248L11.5,4A7.457,7.457,0,0,0,7.086,2.5a7.084,7.084,0,1,0,7.081,7.08,7.254,7.254,0,0,0-1.5-4.414l3.751-3.752a.822.822,0,0,0,.251-.586.818.818,0,0,0-.251-.58A.9.9,0,0,0,15.834,0ZM7.086,15a5.418,5.418,0,1,1,0-10.836A5.407,5.407,0,0,1,12.5,9.58,5.421,5.421,0,0,1,7.086,15Z" transform="translate(16.668 16.666) rotate(180)" fill="#423b3f"/>
</svg>
