<svg xmlns="http://www.w3.org/2000/svg" width="13.067" height="17.422" viewBox="0 0 13.067 17.422">
  <g id="noun_Location_4335475" transform="translate(-14 -8)">
    <path id="Path_54342" data-name="Path 54342" d="M22.711,52.882a1.083,1.083,0,0,1-1.558,0c-.218-.225-.47-.489-.743-.782a11.658,11.658,0,0,0-4.214.69c.46.282,2.4.726,5.735.726s5.276-.442,5.735-.726a11.6,11.6,0,0,0-4.214-.69C23.181,52.394,22.929,52.658,22.711,52.882Z" transform="translate(-1.399 -28.094)" fill="#2a1f6d"/>
    <path id="Path_54343" data-name="Path 54343" d="M20.791,24.282c1.474-1.514,6.276-6.7,6.276-9.749a6.533,6.533,0,1,0-13.066,0c0,3.049,4.8,8.236,6.276,9.749A.366.366,0,0,0,20.791,24.282Zm-.258-14.83a5.081,5.081,0,1,1-5.081,5.081,5.081,5.081,0,0,1,5.081-5.081Z" fill="#2a1f6d"/>
  </g>
</svg>
