<svg xmlns="http://www.w3.org/2000/svg" width="15.003" height="16.504" viewBox="0 0 15.003 16.504">
  <path id="Subtraction_25" data-name="Subtraction 25" d="M2558.751-19021.5h-10.5a2.2,2.2,0,0,1-2.25-2.252v-10.5a2.2,2.2,0,0,1,2.25-2.252h1.5v-.75a.711.711,0,0,1,.75-.75.711.711,0,0,1,.75.75v.75h4.5v-.75a.711.711,0,0,1,.75-.75.711.711,0,0,1,.75.75v.75h1.5a2.2,2.2,0,0,1,2.25,2.252v10.5A2.2,2.2,0,0,1,2558.751-19021.5Zm-11.252-9h0v6.75a.71.71,0,0,0,.75.752h10.5a.71.71,0,0,0,.75-.752v-6.75Zm.75-4.5a.71.71,0,0,0-.75.752v2.25h12v-2.25a.71.71,0,0,0-.75-.752h-1.5v.752a.711.711,0,0,1-.75.75.711.711,0,0,1-.75-.75v-.752h-4.5v.752a.711.711,0,0,1-.75.75.711.711,0,0,1-.75-.75v-.752Z" transform="translate(-2545.999 19038.002)" fill="#2a1f6d"/>
</svg>
