<svg xmlns="http://www.w3.org/2000/svg" xmlns:xlink="http://www.w3.org/1999/xlink" width="21" height="21" viewBox="0 0 21 21">
  <defs>
    <clipPath id="clip-path">
      <rect id="Rectangle_1588" data-name="Rectangle 1588" width="21" height="21" transform="translate(1314 269)" fill="#fff" stroke="#707070" stroke-width="1"/>
    </clipPath>
  </defs>
  <g id="Mask_Group_3" data-name="Mask Group 3" transform="translate(-1314 -269)" clip-path="url(#clip-path)">
    <g id="svgexport-6_10_" data-name="svgexport-6 (10)" transform="translate(1313.158 268.159)">
      <g id="Group_1" data-name="Group 1">
        <path id="Path_54349" data-name="Path 54349" d="M10.7,14.308a.31.31,0,0,0-.3-.233H2.582a.31.31,0,0,0-.3.233,4.342,4.342,0,1,0,8.416,0ZM6.49,19.095a3.726,3.726,0,0,1-3.721-3.721,3.688,3.688,0,0,1,.063-.679h7.317a3.72,3.72,0,0,1-3.659,4.4Z" fill="#2a1f6d"/>
        <path id="Path_54350" data-name="Path 54350" d="M21.531,20.158H20.368V19.4a.31.31,0,0,0-.31-.31h-.221V5.661h1.273a.31.31,0,0,0,.31-.31V4.287a.31.31,0,0,0-.31-.31H19.837V2.692a.31.31,0,0,0-.31-.31H18.464a.31.31,0,0,0-.31.31V3.977h-1.34V2.521A.84.84,0,0,0,16.769.842H13.047A.84.84,0,1,0,13,2.521V3.977h-.488a.31.31,0,0,0-.31.31V5.35a.31.31,0,0,0,.31.31H13v8.006a1.905,1.905,0,0,0,3.81,0V5.661h1.34V19.095h-.222a.31.31,0,0,0-.31.31v.753H9a5.4,5.4,0,0,0-.073-9.608V3.721a.84.84,0,1,0-.044-1.679H4.1a.84.84,0,0,0-.045,1.679V10.55a5.4,5.4,0,0,0-.073,9.608H1.152a.31.31,0,0,0-.31.31v1.063a.31.31,0,0,0,.31.31H21.531a.31.31,0,0,0,.31-.31V20.468a.31.31,0,0,0-.31-.31ZM18.774,3h.443v.975h-.443ZM12.826,1.684a.222.222,0,0,1,.222-.222h3.721a.222.222,0,1,1,0,.443H13.047A.222.222,0,0,1,12.826,1.684Zm.8.842h2.57V3.977H13.624Zm-.8,2.072H20.8V5.04H12.826Zm3.367,1.639H15.44a.31.31,0,0,0,0,.62h.754v.576H15.44a.31.31,0,0,0,0,.62h.754v.576H15.44a.31.31,0,0,0,0,.62h.754v.576H15.44a.31.31,0,0,0,0,.62h.754v.576H15.44a.31.31,0,1,0,0,.62h.754v2.025a1.285,1.285,0,0,1-2.57,0V5.661h2.57Zm2.58-.576h.443V19.095h-.443Zm-.532,14.054h1.506v.443H18.242ZM3.876,2.884A.222.222,0,0,1,4.1,2.663H8.883a.222.222,0,1,1,0,.443H4.1A.222.222,0,0,1,3.876,2.884ZM1.7,15.373a4.8,4.8,0,0,1,2.788-4.347.31.31,0,0,0,.181-.282V3.726H8.306v.7H7.554a.31.31,0,0,0,0,.62h.752v.576H7.554a.31.31,0,0,0,0,.62h.752v.576H7.554a.31.31,0,0,0,0,.62h.752v.576H7.554a.31.31,0,0,0,0,.62h.752v.576H7.554a.31.31,0,0,0,0,.62h.752v.909a.31.31,0,0,0,.181.282A4.785,4.785,0,1,1,1.7,15.373Zm19.516,5.848H1.462v-.443H21.221Z" fill="#2a1f6d" stroke="#2a1f6d" stroke-width="0.2"/>
      </g>
    </g>
  </g>
</svg>
